# xmcd
#
# Track frame offsets:
# 150
# 10149
# 21620
# 35103
# 45586
# 56195
# 69786
# 81189
# 93770
# 104461
# 117770
# 130025
#
# Disc length: 1861 seconds
#
#
# Revision: 0
# Processed by: cddbd v1.5.1PL0 Copyright (c) Steve Scherf et al.
# Submitted via: FreeRIP 2.90 
#
DISCID=9907430c
DTITLE=Hi-Q's - Hop And Bop
DYEAR=2004
DGENRE=
TTITLE0=Dirty White Bucks
TTITLE1=The Hi-Q Boogie
TTITLE2=Bop Crazy Bop
TTITLE3=Worn Out
TTITLE4=Rock n Roll Guitars
TTITLE5=I Wanna Live
TTITLE6=Twenty-One Days
TTITLE7=Jungle Boy Jack
TTITLE8=Speed Limit
TTITLE9=Wiggle Walkin' Baby
TTITLE10=Hop n' Bop
TTITLE11=All the Time
EXTD=
EXTT0=
EXTT1=
EXTT2=
EXTT3=
EXTT4=
EXTT5=
EXTT6=
EXTT7=
EXTT8=
EXTT9=
EXTT10=
EXTT11=
PLAYORDER=
